<svg version="1.1" id="Layer_1" xmlns="http://www.w3.org/2000/svg" xmlns:xlink="http://www.w3.org/1999/xlink" x="0px" y="0px"
	 width="100%" viewBox="0 0 900 900" enable-background="new 0 0 900 900" xml:space="preserve">
<path fill="#000000" opacity="1.000000" stroke="none" 
	d="
M483.000000,901.000000 
	C322.000000,901.000000 161.500000,901.000000 1.000000,901.000000 
	C1.000000,601.000000 1.000000,301.000000 1.000000,1.000000 
	C301.000000,1.000000 601.000000,1.000000 901.000000,1.000000 
	C901.000000,301.000000 901.000000,601.000000 901.000000,901.000000 
	C761.833313,901.000000 622.666687,901.000000 483.000000,901.000000 
M615.499878,524.770142 
	C646.434570,524.770142 677.369263,524.770142 708.532593,524.770142 
	C708.532593,475.396851 708.532593,426.535828 708.532593,377.574524 
	C659.374939,377.574524 610.521179,377.574524 561.685303,377.574524 
	C561.685303,426.788513 561.685303,475.655823 561.685303,524.770142 
	C579.544312,524.770142 597.022095,524.770142 615.499878,524.770142 
M446.499878,524.769043 
	C472.567627,524.769043 498.635376,524.769043 524.618042,524.769043 
	C524.618042,475.200500 524.618042,426.446472 524.618042,377.639221 
	C475.331299,377.639221 426.316742,377.639221 377.380188,377.639221 
	C377.380188,426.803528 377.380188,475.558289 377.380188,524.769043 
	C400.263489,524.769043 422.881653,524.769043 446.499878,524.769043 
M193.164764,458.499939 
	C193.164764,480.435211 193.164764,502.370453 193.164764,524.444946 
	C242.589539,524.444946 291.447723,524.444946 340.332581,524.444946 
	C340.332581,475.243591 340.332581,426.373108 340.332581,377.645142 
	C291.102722,377.645142 242.242004,377.645142 193.164780,377.645142 
	C193.164780,404.541107 193.164780,431.020508 193.164764,458.499939 
z"/>
<path fill="#FBFBFB" opacity="1.000000" stroke="none" 
	d="
M614.999878,524.770142 
	C597.022095,524.770142 579.544312,524.770142 561.685303,524.770142 
	C561.685303,475.655823 561.685303,426.788513 561.685303,377.574524 
	C610.521179,377.574524 659.374939,377.574524 708.532593,377.574524 
	C708.532593,426.535828 708.532593,475.396851 708.532593,524.770142 
	C677.369263,524.770142 646.434570,524.770142 614.999878,524.770142 
M665.513611,472.708740 
	C660.318604,474.397400 655.230103,476.886444 649.904663,477.595337 
	C640.933472,478.789459 631.756531,478.816589 624.589294,471.731140 
	C615.522034,462.767395 614.173828,444.782379 621.489197,434.298096 
	C625.112610,429.105072 629.910339,425.963562 636.120117,424.768707 
	C646.647095,422.743134 656.530701,424.562256 666.206360,429.971497 
	C666.206360,427.141235 666.205872,424.826477 666.206482,422.511719 
	C666.208801,413.656525 666.239746,413.544708 657.736633,411.202423 
	C642.995850,407.141876 628.429321,407.677185 615.479492,416.207153 
	C600.152710,426.302765 597.073059,442.115204 599.131287,458.984100 
	C601.058411,474.777466 609.410339,486.179932 625.261780,490.885651 
	C638.520203,494.821594 651.549683,493.598907 664.269653,488.430145 
	C665.272949,488.022491 666.887451,487.168854 666.880920,486.536316 
	C666.831543,481.755127 666.447754,476.977356 665.513611,472.708740 
z"/>
<path fill="#FCFCFC" opacity="1.000000" stroke="none" 
	d="
M445.999847,524.769043 
	C422.881653,524.769043 400.263489,524.769043 377.380188,524.769043 
	C377.380188,475.558289 377.380188,426.803528 377.380188,377.639221 
	C426.316742,377.639221 475.331299,377.639221 524.618042,377.639221 
	C524.618042,426.446472 524.618042,475.200500 524.618042,524.769043 
	C498.635376,524.769043 472.567627,524.769043 445.999847,524.769043 
M480.676758,479.943817 
	C483.848877,474.637238 484.207458,468.842499 482.949036,463.045776 
	C481.316925,455.527466 476.155029,450.798950 468.543610,448.018646 
	C474.473785,444.590973 478.108948,440.573303 478.995056,434.422333 
	C480.762939,422.150848 474.167725,412.360504 460.873871,411.112274 
	C447.413208,409.848358 433.741364,410.833435 420.176056,410.833435 
	C420.176056,437.569885 420.176056,464.770874 420.176056,492.112671 
	C432.519318,492.112671 444.528046,492.536835 456.490601,491.976166 
	C465.771179,491.541199 474.666504,489.201172 480.676758,479.943817 
z"/>
<path fill="#FBFBFB" opacity="1.000000" stroke="none" 
	d="
M193.164764,457.999939 
	C193.164780,431.020508 193.164780,404.541107 193.164780,377.645142 
	C242.242004,377.645142 291.102722,377.645142 340.332581,377.645142 
	C340.332581,426.373108 340.332581,475.243591 340.332581,524.444946 
	C291.447723,524.444946 242.589539,524.444946 193.164764,524.444946 
	C193.164764,502.370453 193.164764,480.435211 193.164764,457.999939 
M296.168365,456.521240 
	C292.634888,453.461456 289.101379,450.401703 285.579285,447.351776 
	C293.207764,443.203918 296.060883,436.243591 294.911346,427.793427 
	C293.770660,419.408112 288.682648,413.757202 280.425201,411.891083 
	C274.818634,410.624054 268.963470,410.151245 263.198456,409.960785 
	C253.962616,409.655640 244.709335,409.879028 235.512283,409.879028 
	C235.512283,437.656891 235.512283,464.728180 235.512283,492.122833 
	C247.243286,492.122833 258.718811,492.339325 270.179108,492.016144 
	C274.760254,491.886993 279.486267,491.113586 283.838074,489.690674 
	C298.208923,484.991821 303.713959,470.566650 296.168365,456.521240 
z"/>
<path fill="#040404" opacity="1.000000" stroke="none" 
	d="
M665.841003,472.453613 
	C666.447754,476.977356 666.831543,481.755127 666.880920,486.536316 
	C666.887451,487.168854 665.272949,488.022491 664.269653,488.430145 
	C651.549683,493.598907 638.520203,494.821594 625.261780,490.885651 
	C609.410339,486.179932 601.058411,474.777466 599.131287,458.984100 
	C597.073059,442.115204 600.152710,426.302765 615.479492,416.207153 
	C628.429321,407.677185 642.995850,407.141876 657.736633,411.202423 
	C666.239746,413.544708 666.208801,413.656525 666.206482,422.511719 
	C666.205872,424.826477 666.206360,427.141235 666.206360,429.971497 
	C656.530701,424.562256 646.647095,422.743134 636.120117,424.768707 
	C629.910339,425.963562 625.112610,429.105072 621.489197,434.298096 
	C614.173828,444.782379 615.522034,462.767395 624.589294,471.731140 
	C631.756531,478.816589 640.933472,478.789459 649.904663,477.595337 
	C655.230103,476.886444 660.318604,474.397400 665.841003,472.453613 
z"/>
<path fill="#020202" opacity="1.000000" stroke="none" 
	d="
M480.474976,480.260345 
	C474.666504,489.201172 465.771179,491.541199 456.490601,491.976166 
	C444.528046,492.536835 432.519318,492.112671 420.176056,492.112671 
	C420.176056,464.770874 420.176056,437.569885 420.176056,410.833435 
	C433.741364,410.833435 447.413208,409.848358 460.873871,411.112274 
	C474.167725,412.360504 480.762939,422.150848 478.995056,434.422333 
	C478.108948,440.573303 474.473785,444.590973 468.543610,448.018646 
	C476.155029,450.798950 481.316925,455.527466 482.949036,463.045776 
	C484.207458,468.842499 483.848877,474.637238 480.474976,480.260345 
M437.139954,456.521851 
	C436.712585,463.949310 436.285187,471.376740 435.826141,479.354309 
	C443.715546,478.974304 450.576874,479.238464 457.221771,478.164093 
	C464.532623,476.982086 467.000916,473.416534 466.712891,467.099915 
	C466.456421,461.475006 463.102051,457.842682 456.392853,457.110229 
	C450.319611,456.447235 444.159485,456.579956 437.139954,456.521851 
M462.586914,434.144989 
	C462.153564,427.023468 460.292023,424.311646 453.410583,423.445587 
	C447.902924,422.752411 442.238434,423.305542 436.539551,423.305542 
	C436.539551,430.175964 436.539551,436.878387 436.539551,443.797607 
	C441.493774,443.797607 446.149750,444.104950 450.747498,443.718658 
	C456.312897,443.251099 461.183258,441.353821 462.586914,434.144989 
z"/>
<path fill="#040404" opacity="1.000000" stroke="none" 
	d="
M296.388000,456.819824 
	C303.713959,470.566650 298.208923,484.991821 283.838074,489.690674 
	C279.486267,491.113586 274.760254,491.886993 270.179108,492.016144 
	C258.718811,492.339325 247.243286,492.122833 235.512283,492.122833 
	C235.512283,464.728180 235.512283,437.656891 235.512283,409.879028 
	C244.709335,409.879028 253.962616,409.655640 263.198456,409.960785 
	C268.963470,410.151245 274.818634,410.624054 280.425201,411.891083 
	C288.682648,413.757202 293.770660,419.408112 294.911346,427.793427 
	C296.060883,436.243591 293.207764,443.203918 285.579285,447.351776 
	C289.101379,450.401703 292.634888,453.461456 296.388000,456.819824 
M263.376099,456.357788 
	C259.762665,456.357788 256.149231,456.357788 252.324905,456.357788 
	C252.225296,457.974915 252.099960,459.097412 252.096329,460.220337 
	C252.076630,466.323273 252.086975,472.426331 252.086975,479.407928 
	C259.721832,478.938843 266.988647,478.949158 274.102936,477.912506 
	C279.928589,477.063568 283.027161,472.674866 282.816467,467.565613 
	C282.603119,462.391846 279.124329,458.224121 273.707062,457.198425 
	C270.634125,456.616577 267.450623,456.618896 263.376099,456.357788 
M278.391174,431.717804 
	C278.037994,427.286865 275.568390,424.502014 271.281677,424.018219 
	C264.970825,423.306000 258.602356,423.103882 252.373108,422.692108 
	C252.373108,430.345123 252.373108,436.929352 252.373108,444.154449 
	C258.271423,443.825989 263.934631,443.963135 269.436371,443.086792 
	C275.937988,442.051208 277.938812,439.225952 278.391174,431.717804 
z"/>
<path fill="#FBFBFB" opacity="1.000000" stroke="none" 
	d="
M437.588806,456.441833 
	C444.159485,456.579956 450.319611,456.447235 456.392853,457.110229 
	C463.102051,457.842682 466.456421,461.475006 466.712891,467.099915 
	C467.000916,473.416534 464.532623,476.982086 457.221771,478.164093 
	C450.576874,479.238464 443.715546,478.974304 435.826141,479.354309 
	C436.285187,471.376740 436.712585,463.949310 437.588806,456.441833 
z"/>
<path fill="#FBFBFB" opacity="1.000000" stroke="none" 
	d="
M462.484497,434.517456 
	C461.183258,441.353821 456.312897,443.251099 450.747498,443.718658 
	C446.149750,444.104950 441.493774,443.797607 436.539551,443.797607 
	C436.539551,436.878387 436.539551,430.175964 436.539551,423.305542 
	C442.238434,423.305542 447.902924,422.752411 453.410583,423.445587 
	C460.292023,424.311646 462.153564,427.023468 462.484497,434.517456 
z"/>
<path fill="#FBFBFB" opacity="1.000000" stroke="none" 
	d="
M263.846497,456.357971 
	C267.450623,456.618896 270.634125,456.616577 273.707062,457.198425 
	C279.124329,458.224121 282.603119,462.391846 282.816467,467.565613 
	C283.027161,472.674866 279.928589,477.063568 274.102936,477.912506 
	C266.988647,478.949158 259.721832,478.938843 252.086975,479.407928 
	C252.086975,472.426331 252.076630,466.323273 252.096329,460.220337 
	C252.099960,459.097412 252.225296,457.974915 252.324905,456.357788 
	C256.149231,456.357788 259.762665,456.357788 263.846497,456.357971 
z"/>
<path fill="#FBFBFB" opacity="1.000000" stroke="none" 
	d="
M278.404053,432.143921 
	C277.938812,439.225952 275.937988,442.051208 269.436371,443.086792 
	C263.934631,443.963135 258.271423,443.825989 252.373108,444.154449 
	C252.373108,436.929352 252.373108,430.345123 252.373108,422.692108 
	C258.602356,423.103882 264.970825,423.306000 271.281677,424.018219 
	C275.568390,424.502014 278.037994,427.286865 278.404053,432.143921 
z"/>
</svg>